<svg xmlns="http://www.w3.org/2000/svg" width="404.894" height="220.444" viewBox="0 0 404.894 220.444"><defs><style>.a{fill:#d0d0d0;}</style></defs><path class="a" d="M49.171-14.835C49.939-14.643,127.6,6.542,127.6,7.31q0,1.44-1.44,1.152a20.478,20.478,0,0,1-6.481-1.3h-.288a.415.415,0,0,1-.288-.144,19.139,19.139,0,0,1-10.8-8.5,21.982,21.982,0,0,1-2.88-6.913,40.542,40.542,0,0,1-1.008-7.633,48,48,0,0,1,.36-7.849q.5-3.961,1.224-7.561-2.592,5.185-5.977,11.306T92.744-7.74Q88.855-1.475,84.679,4.43A120.038,120.038,0,0,1,76.4,14.944,47.758,47.758,0,0,1,68.4,22.289a12.939,12.939,0,0,1-7.345,2.736,5.053,5.053,0,0,1-1.44-.144,6.506,6.506,0,0,1-5.329-3.313,10.861,10.861,0,0,1-1.656-6.049,39.546,39.546,0,0,1,.72-7.993,79.483,79.483,0,0,1,2.16-8.713q1.368-4.465,2.952-8.5Q55.3-5.22,51.337.253t-8.353,11.09q-4.393,5.617-9.073,10.946t-9.073,9.433a60.837,60.837,0,0,1-8.281,6.625,13.162,13.162,0,0,1-6.913,2.52,19.3,19.3,0,0,1-4.249-.5,6.332,6.332,0,0,1-3.817-2.808A11.389,11.389,0,0,1,.065,32.082a37.329,37.329,0,0,1,1.008-9.361A150.061,150.061,0,0,1,5.106,8.03Q7.915-.755,12.739-13.5T24.405-43.458q6.841-17.211,16.059-39.678A1.006,1.006,0,0,1,41.616-84h1.44a1.66,1.66,0,0,1,1.152.576,1.253,1.253,0,0,1,.144,1.3q-.144.144-2.3,5.545T36.359-62.541Q32.831-53.9,28.582-42.954T20.157-20.846Q15.98-9.684,12.307.757T6.474,18.976q-2.448,8.209-2.3,12.1a13.4,13.4,0,0,0,1.008,5.473,3.12,3.12,0,0,0,2.016,1.584,4.735,4.735,0,0,0,1.152.144h1.3q3.024,0,7.489-3.313a78.018,78.018,0,0,0,9.578-8.641q5.113-5.329,10.514-11.954T47.593.973Q52.562-5.8,56.81-11.917t6.985-10.3l.288-.288q.144,0,.144-.072t.144-.072l.144-.144h1.872q.864,0,1.008.576a1.253,1.253,0,0,1,.144,1.3l-1.152,2.376q-1.152,2.376-2.664,6.121T60.483-3.779A90.275,90.275,0,0,0,57.6,6.158q-1.584,6.913-1.3,10.154A9.23,9.23,0,0,0,57.458,20.7a3.59,3.59,0,0,0,2.448,1.584,3.746,3.746,0,0,0,1.152.144q3.6,0,7.993-3.745A68.363,68.363,0,0,0,78.2,8.895q4.753-6.049,9.578-13.61t9.073-15.122q4.249-7.561,7.777-14.546t5.833-11.738l.144-.144a.127.127,0,0,1,.144-.144l.144-.144a.415.415,0,0,1,.288-.144.415.415,0,0,1,.288-.144h1.44a1.66,1.66,0,0,1,1.152.576,1.253,1.253,0,0,1,.144,1.3l-1.008,2.52a57.288,57.288,0,0,0-2.088,6.7q-1.08,4.177-2.016,9.65a57.9,57.9,0,0,0-.792,11.234,23.032,23.032,0,0,0,1.728,8.641,21.662,21.662,0,0,0,3.6,5.833,20.544,20.544,0,0,0,3.889,3.457,18.6,18.6,0,0,0,2.592,1.512C121.933,5.246,46.771-15.027,49.171-14.835ZM164.179-56.492a34.57,34.57,0,0,1-1.8,10.658A77.63,77.63,0,0,1,156.4-31.792a129.7,129.7,0,0,1-10.082,15.77A133.175,133.175,0,0,1,132.35-.035a3.413,3.413,0,0,1,1.224-.288H134.8a3.853,3.853,0,0,1,3.024,1.3q1.008,1.3.576,4.465-.144,1.008-.216,2.016a12.666,12.666,0,0,1-.36,2.16q-.144,1.3-.36,2.664a16.65,16.65,0,0,0-.216,2.592,8.724,8.724,0,0,0,.216,2.088q.216.864.792,1.008h.144a6.2,6.2,0,0,0,3.529-.648,46.808,46.808,0,0,0,5.113-2.592,69.6,69.6,0,0,0,5.977-3.889q3.1-2.232,6.121-4.681a1.1,1.1,0,0,1,1.728.288q1.008.864-.144,1.728-1.584,1.3-4.537,3.529t-6.265,4.321A43.789,43.789,0,0,1,143.3,19.48a10.147,10.147,0,0,1-5.617.936,3.384,3.384,0,0,1-2.016-1.008,6,6,0,0,1-1.512-5.041,47.451,47.451,0,0,1,1.08-5.9l.576-3.457a10.939,10.939,0,0,0,.144-1.8q0-.936-1.152-.936-4.465,0-8.209,4.033a43.954,43.954,0,0,0-6.625,9.505q-1.584,4.753-3.024,9.145t-2.592,8.281l-.72,2.448a1.384,1.384,0,0,1-1.3.864H110.6a.127.127,0,0,1-.144-.144h-.288l-.144-.144q0-.144-.072-.144t-.072-.144a.127.127,0,0,1-.144-.144.415.415,0,0,0-.144-.288v-.576l.864-2.736q3.6-12.1,7.849-23.548T127.021-13q4.465-10.226,8.929-18.939t8.641-15.194A91.254,91.254,0,0,1,152.3-57.644q3.529-4.033,5.977-4.9a3.09,3.09,0,0,1,2.52-.072,5.45,5.45,0,0,1,1.872,1.44,5.812,5.812,0,0,1,1.152,2.232A9.161,9.161,0,0,1,164.179-56.492ZM124.285,3.71a122.5,122.5,0,0,0,16.275-16.491A132.942,132.942,0,0,0,152.369-29.7a81.24,81.24,0,0,0,7.057-15.266q2.3-7.057,2.16-11.378a5.641,5.641,0,0,0-.72-3.024q-.72-1.152-2.448-.432a13.305,13.305,0,0,0-3.024,2.448,51.182,51.182,0,0,0-6.337,8.785q-3.457,5.761-6.769,12.242t-6.193,12.674q-2.88,6.193-4.753,10.226-2.016,4.321-3.745,8.641T124.285,3.71Zm70.283,2.3q1.3-.576,1.584.864a1.213,1.213,0,0,1-.864,1.584,47.4,47.4,0,0,1-11.09,2.232,25.857,25.857,0,0,1-7.345-.5.415.415,0,0,1-.144.288,49.575,49.575,0,0,1-3.6,5.113,28.838,28.838,0,0,1-4.321,4.393,23.243,23.243,0,0,1-4.753,3.024,11.13,11.13,0,0,1-4.753,1.152,8.258,8.258,0,0,1-6.769-3.241,10.5,10.5,0,0,1-2.448-7.129,21.441,21.441,0,0,1,2.016-7.921A37.733,37.733,0,0,1,157.05-2.2a45.306,45.306,0,0,1,6.913-6.985,29.774,29.774,0,0,1,7.849-4.681,2.635,2.635,0,0,1,1.224,0,2.456,2.456,0,0,1,1.008.432.609.609,0,0,1,.144.792,2.789,2.789,0,0,1-1.224,1.08,43.068,43.068,0,0,0-7.489,5.185,41.229,41.229,0,0,0-5.689,5.977,29.6,29.6,0,0,0-3.745,6.265,24.491,24.491,0,0,0-1.8,6.049q-.864,6.049,1.44,7.993a6.251,6.251,0,0,0,5.833,1.08,18.23,18.23,0,0,0,7.273-4.033A20.013,20.013,0,0,0,174.4,9.327q-.288-.288-.432-.288l-.576-.288a8.241,8.241,0,0,1-1.944-1.656,13.065,13.065,0,0,1-1.224-1.656,8.463,8.463,0,0,1-.792-5.113A13.941,13.941,0,0,1,171.164-5a8.068,8.068,0,0,1,3.457-3.385q2.088-1.008,4.249.864a5.235,5.235,0,0,1,1.872,2.88,11.012,11.012,0,0,1,.216,3.817,18.679,18.679,0,0,1-1.008,4.321q-.792,2.232-1.8,4.393Q184.342,9.039,194.568,6.014ZM175.7,7.022a22.988,22.988,0,0,0,2.736-7.777q.432-3.457-1.152-4.753a1.327,1.327,0,0,0-2.016-.144,4.084,4.084,0,0,0-1.3,1.728,8.151,8.151,0,0,0-.864,2.376,13.956,13.956,0,0,0-.288,2.88,7.884,7.884,0,0,0,.576,2.952,6.329,6.329,0,0,0,1.728,2.448Zm90.119-11.5q1.152-.288,1.44,1.152,0,1.44-1.152,1.44a16.382,16.382,0,0,1-4.321-.288,13.319,13.319,0,0,1-6.337-3.745,34.1,34.1,0,0,1-3.889-4.753Q240.328,14.24,232.119,13.232q-3.457-.432-4.753-4.465-7.2,8.209-10.946,8.209a3.437,3.437,0,0,1-3.312-2.016q-1.584-2.592-1.224-7.921A79.915,79.915,0,0,1,213.4-3.835q1.152-5.545,2.52-10.082t1.8-5.689a1.13,1.13,0,0,1,1.152-.864h1.152q1.584.288,1.152,1.728l-.432,1.3q-.432,1.3-1.08,3.313t-1.44,4.681q-.792,2.664-1.368,5.545a69.015,69.015,0,0,0-1.944,11.738,19.75,19.75,0,0,0,.216,5.689,2.571,2.571,0,0,0,.72.72h.792a4.367,4.367,0,0,0,1.944-.792,21.057,21.057,0,0,0,3.313-2.736,64.654,64.654,0,0,0,5.041-5.689.415.415,0,0,0,.288-.144.977.977,0,0,1,.72-.288h1.008q1.008,0,1.3,1.3a10.957,10.957,0,0,0,.288,1.944,3.283,3.283,0,0,0,1.3,2.088,2.742,2.742,0,0,0,2.016.576,9.32,9.32,0,0,0,2.376-1.44,21.107,21.107,0,0,0,3.6-3.889A64.6,64.6,0,0,0,244.5-2.178a111.838,111.838,0,0,0,5.617-11.954,3.225,3.225,0,0,1,.936-.72A4.278,4.278,0,0,1,252.426-15a1.129,1.129,0,0,1,1.152.864l.5,1.224a14.055,14.055,0,0,0,1.584,2.736A19.48,19.48,0,0,0,258.4-7.147a12.478,12.478,0,0,0,3.817,2.376A11.654,11.654,0,0,0,265.82-4.483Zm4.9-12.53a30.514,30.514,0,0,0-4.681,4.9,25.313,25.313,0,0,0-3.673,6.769,53.808,53.808,0,0,0,8.857-6.121A8.078,8.078,0,0,0,274.029-16q.288-1.584-.576-2.016Q272.733-18.741,270.717-17.013ZM284.975-3.907q.864-1.152,1.728,0a1.229,1.229,0,0,1,0,1.872,40.672,40.672,0,0,1-8.209,5.689A41.118,41.118,0,0,1,267.116,7.9a14.663,14.663,0,0,1-3.817.432,6.453,6.453,0,0,1-3.385-.72q-3.6-1.728-2.592-7.921a26.459,26.459,0,0,1,2.592-7.777,31.316,31.316,0,0,1,4.753-7.057,20.664,20.664,0,0,1,5.617-4.537q2.88-1.512,5.041-.216a4.2,4.2,0,0,1,1.3,4.177,11.4,11.4,0,0,1-4.465,7.129A76.983,76.983,0,0,1,261.5-1.89q-.144,1.152-.36,2.664a5.663,5.663,0,0,0,.36,2.952,5.63,5.63,0,0,0,.792,1.368,2.578,2.578,0,0,0,2.088.648,17.876,17.876,0,0,0,4.537-.72,34.689,34.689,0,0,0,5.473-2.016,46.634,46.634,0,0,0,5.617-3.1A34.709,34.709,0,0,0,284.975-3.907Zm55.842-10.353q.864-1.152,1.872-.288,1.152.864.288,1.872a50.547,50.547,0,0,1-9,9.433Q329.727,0,326.415,0a4.909,4.909,0,0,1-2.88-.72q-.144,0-.432-.288a.127.127,0,0,1-.144-.144q-.144,0-.144-.072T322.67-1.3l-.288-.288-.288-.288a9.345,9.345,0,0,1-1.8-4.249,15.006,15.006,0,0,1,.216-5.977A34.518,34.518,0,0,1,313.6-5.33a13.206,13.206,0,0,1-5.473,2.448h-.576a5.183,5.183,0,0,1-2.592-.576q-2.3-1.3-2.448-4.681a16.034,16.034,0,0,1,2.016-7.705q3.312-6.913,6.409-9.433a13.209,13.209,0,0,1,5.257-2.952,3.192,3.192,0,0,1,1.008-.144h1.152a7,7,0,0,1,3.457,1.44,1.307,1.307,0,0,1,.144,1.872q-.72,1.008-1.872.144a3.312,3.312,0,0,0-2.448-.864,5.674,5.674,0,0,0-2.448,1.728,36.413,36.413,0,0,0-3.312,3.889,37.461,37.461,0,0,0-3.169,5.041,17.741,17.741,0,0,0-1.872,5.329q-.576,2.448-.072,3.241a2.888,2.888,0,0,0,1.08,1.08q2.16-.288,5.977-3.385t8.857-10.73l.288-.288a.415.415,0,0,1,.288-.144l.144-.144h.432q.288,0,.288.144h.144l1.3.576a1.208,1.208,0,0,1,.72,1.584,40.137,40.137,0,0,0-1.368,3.889,36.189,36.189,0,0,0-1.008,4.249,22.274,22.274,0,0,0-.36,3.745A3.837,3.837,0,0,0,324.11-3.6a.127.127,0,0,0,.144.144.127.127,0,0,0,.144.144l.432.432q1.872,1.008,5.9-1.224T340.817-14.259ZM364-14.4a.969.969,0,0,1,.864-.432,1.775,1.775,0,0,1,1.008.288,1.862,1.862,0,0,1,.144,1.872q-2.592,4.033-5.473,8.713a98.509,98.509,0,0,1-5.761,8.425,32.784,32.784,0,0,1-5.545,5.833q-2.664,2.088-4.825.936a4.574,4.574,0,0,1-1.8-2.16,7.682,7.682,0,0,1-.5-2.808,13.948,13.948,0,0,1,.36-3.1q.36-1.584.792-3.024.72-2.736,1.872-6.193t2.3-6.553q1.152-3.1,1.944-5.113l.792-2.016a17.378,17.378,0,0,1-4.249,3.673,30.8,30.8,0,0,1-6.337,3.313,11.93,11.93,0,0,1-5.833.864q-2.592-.36-2.88-3.529a6.283,6.283,0,0,1,.5-2.808,9.129,9.129,0,0,1,1.656-2.952,3.953,3.953,0,0,1,1.728-1.224,1.871,1.871,0,0,1,2.016.648,2.974,2.974,0,0,1,1.152,2.736,7.115,7.115,0,0,1-1.584,4.177,10.525,10.525,0,0,0,5.473-1.368,27.253,27.253,0,0,0,4.1-2.952q1.8-1.584,3.168-2.808a2.817,2.817,0,0,1,2.52-.936q.432.144,1.008.36a2.069,2.069,0,0,1,1.008.936,3.323,3.323,0,0,1-.072,2.448q-.5,1.584-1.656,4.393T349.17-7.634q-1.584,4.321-3.312,10.8-.72,2.88-.288,3.6a2.534,2.534,0,0,0,1.008,1.008q.864.576,2.736-1.224a39.634,39.634,0,0,0,4.249-5.041q2.376-3.241,5.113-7.417T364-14.4Zm5.329-12.962a30.514,30.514,0,0,0-4.681,4.9A25.313,25.313,0,0,0,360.98-15.7a53.808,53.808,0,0,0,8.857-6.121,8.078,8.078,0,0,0,2.808-4.537q.288-1.584-.576-2.016Q371.35-29.094,369.333-27.365Zm14.258,13.106q.864-1.152,1.728,0a1.229,1.229,0,0,1,0,1.872A40.673,40.673,0,0,1,377.111-6.7a41.118,41.118,0,0,1-11.378,4.249,14.663,14.663,0,0,1-3.817.432,6.453,6.453,0,0,1-3.385-.72q-3.6-1.728-2.592-7.921a26.459,26.459,0,0,1,2.592-7.777,31.316,31.316,0,0,1,4.753-7.057A20.664,20.664,0,0,1,368.9-30.03q2.88-1.512,5.041-.216a4.2,4.2,0,0,1,1.3,4.177,11.4,11.4,0,0,1-4.465,7.129,76.984,76.984,0,0,1-10.658,6.7q-.144,1.152-.36,2.664a5.663,5.663,0,0,0,.36,2.952,5.631,5.631,0,0,0,.792,1.368A2.578,2.578,0,0,0,363-4.61a17.876,17.876,0,0,0,4.537-.72,34.688,34.688,0,0,0,5.473-2.016,46.632,46.632,0,0,0,5.617-3.1A34.708,34.708,0,0,0,383.592-14.259Z" transform="matrix(0.966, -0.259, 0.259, 0.966, 21.709, 180.978)"/></svg>