<svg xmlns="http://www.w3.org/2000/svg" width="565.205" height="263.343" viewBox="0 0 565.205 263.343"><defs><style>.a{fill:#ccc;}</style></defs><g transform="matrix(0.966, -0.259, 0.259, 0.966, -5.9, 120.915)"><path class="a" d="M119.487-10.343a1.286,1.286,0,0,1,1.089,1.361q0,1.361-1.361,1.089a19.35,19.35,0,0,1-6.124-1.225h-.272a.392.392,0,0,1-.272-.136,18.085,18.085,0,0,1-10.207-8.029,20.771,20.771,0,0,1-2.722-6.532,38.309,38.309,0,0,1-.953-7.213,45.358,45.358,0,0,1,.34-7.417q.476-3.742,1.157-7.145-2.45,4.9-5.648,10.683T87.642-23.2q-3.674,5.92-7.621,11.5A113.426,113.426,0,0,1,72.2-1.769a45.127,45.127,0,0,1-7.553,6.941A12.226,12.226,0,0,1,57.7,7.757a4.775,4.775,0,0,1-1.361-.136,6.148,6.148,0,0,1-5.035-3.13,10.263,10.263,0,0,1-1.565-5.716,37.368,37.368,0,0,1,.68-7.553,75.106,75.106,0,0,1,2.041-8.233q1.293-4.219,2.79-8.029-2.994,4.219-6.736,9.39T40.623-5.171Q36.472.136,32.049,5.171t-8.574,8.914a57.486,57.486,0,0,1-7.825,6.26,12.437,12.437,0,0,1-6.532,2.382A18.241,18.241,0,0,1,5.1,22.251,5.983,5.983,0,0,1,1.5,19.6,10.762,10.762,0,0,1,.068,14.426,35.273,35.273,0,0,1,1.021,5.58,141.8,141.8,0,0,1,4.831-8.3q2.654-8.3,7.213-20.345T23.067-56.954q6.464-16.263,15.174-37.493a.951.951,0,0,1,1.089-.817h1.361a1.568,1.568,0,0,1,1.089.544,1.184,1.184,0,0,1,.136,1.225q-.136.136-2.177,5.239T34.363-74.986q-3.334,8.165-7.349,18.508t-7.961,20.89q-3.947,10.547-7.417,20.414T6.124,2.041Q3.811,9.8,3.947,13.473A12.662,12.662,0,0,0,4.9,18.644a2.948,2.948,0,0,0,1.905,1.5,4.474,4.474,0,0,0,1.089.136H9.118q2.858,0,7.077-3.13a73.721,73.721,0,0,0,9.05-8.165q4.831-5.035,9.935-11.3t9.8-12.656q4.7-6.4,8.71-12.18t6.6-9.73l.272-.272q.136,0,.136-.068t.136-.068l.136-.136h1.769q.817,0,.953.544a1.184,1.184,0,0,1,.136,1.225L62.737-33.41q-1.089,2.245-2.518,5.784t-3.062,8.165a85.3,85.3,0,0,0-2.722,9.39q-1.5,6.532-1.225,9.594A8.721,8.721,0,0,0,54.3,3.674a3.392,3.392,0,0,0,2.314,1.5,3.54,3.54,0,0,0,1.089.136q3.4,0,7.553-3.538A64.6,64.6,0,0,0,73.9-7.485q4.491-5.716,9.05-12.861t8.574-14.289q4.015-7.145,7.349-13.745t5.512-11.091l.136-.136a.12.12,0,0,1,.136-.136l.136-.136a.392.392,0,0,1,.272-.136.392.392,0,0,1,.272-.136h1.361a1.568,1.568,0,0,1,1.089.544,1.184,1.184,0,0,1,.136,1.225L106.967-56a54.134,54.134,0,0,0-1.973,6.328q-1.021,3.947-1.905,9.118a54.708,54.708,0,0,0-.748,10.615,21.763,21.763,0,0,0,1.633,8.165,20.469,20.469,0,0,0,3.4,5.512A19.412,19.412,0,0,0,111.049-13a17.575,17.575,0,0,0,2.45,1.429A22.534,22.534,0,0,0,119.487-10.343Zm11.84-11.84a28.836,28.836,0,0,0-4.423,4.627,23.92,23.92,0,0,0-3.47,6.4,50.845,50.845,0,0,0,8.37-5.784,7.633,7.633,0,0,0,2.654-4.287q.272-1.5-.544-1.905Q133.232-23.816,131.327-22.183ZM144.8-9.8q.817-1.089,1.633,0a1.162,1.162,0,0,1,0,1.769,38.431,38.431,0,0,1-7.757,5.376,38.854,38.854,0,0,1-10.751,4.015,13.855,13.855,0,0,1-3.606.408,6.1,6.1,0,0,1-3.2-.68q-3.4-1.633-2.45-7.485a25,25,0,0,1,2.45-7.349,29.591,29.591,0,0,1,4.491-6.668,19.526,19.526,0,0,1,5.308-4.287q2.722-1.429,4.763-.2a3.966,3.966,0,0,1,1.225,3.947,10.773,10.773,0,0,1-4.219,6.736,72.744,72.744,0,0,1-10.071,6.328q-.136,1.089-.34,2.518a5.351,5.351,0,0,0,.34,2.79,5.32,5.32,0,0,0,.748,1.293,2.436,2.436,0,0,0,1.973.612,16.892,16.892,0,0,0,4.287-.68A32.778,32.778,0,0,0,134.8-3.266,44.063,44.063,0,0,0,140.1-6.192,32.8,32.8,0,0,0,144.8-9.8Zm79.858-14.225q1.089-.272,1.361,1.089,0,1.361-1.089,1.361a15.48,15.48,0,0,1-4.083-.272,12.586,12.586,0,0,1-5.988-3.538,32.216,32.216,0,0,1-3.674-4.491Q200.57-6.332,192.813-7.285q-3.266-.408-4.491-4.219-6.8,7.757-10.343,7.757a3.248,3.248,0,0,1-3.13-1.905q-1.5-2.45-1.157-7.485a75.513,75.513,0,0,1,1.429-10.275q1.089-5.239,2.382-9.526t1.7-5.376a1.067,1.067,0,0,1,1.089-.817h1.089q1.5.272,1.089,1.633l-.408,1.225q-.408,1.225-1.021,3.13t-1.361,4.423q-.749,2.518-1.293,5.239a65.212,65.212,0,0,0-1.837,11.091,18.662,18.662,0,0,0,.2,5.376,2.43,2.43,0,0,0,.68.68h.748a4.126,4.126,0,0,0,1.837-.748,19.9,19.9,0,0,0,3.13-2.586,61.086,61.086,0,0,0,4.763-5.376.392.392,0,0,0,.272-.136.923.923,0,0,1,.68-.272h.953q.953,0,1.225,1.225a10.354,10.354,0,0,0,.272,1.837,3.1,3.1,0,0,0,1.225,1.973,2.591,2.591,0,0,0,1.905.544,8.807,8.807,0,0,0,2.245-1.361,19.945,19.945,0,0,0,3.4-3.674,61.055,61.055,0,0,0,4.423-6.941,105.678,105.678,0,0,0,5.308-11.3,3.048,3.048,0,0,1,.885-.68A4.043,4.043,0,0,1,212-33.958a1.067,1.067,0,0,1,1.089.817l.476,1.157a13.281,13.281,0,0,0,1.5,2.586,18.408,18.408,0,0,0,2.586,2.858,11.79,11.79,0,0,0,3.606,2.245A11.012,11.012,0,0,0,224.658-24.024Zm34.431.544q.817-1.089,1.769-.272,1.089.817.272,1.769a47.765,47.765,0,0,1-8.506,8.914q-4.015,3.062-7.145,3.062a4.639,4.639,0,0,1-2.722-.68q-.136,0-.408-.272a.12.12,0,0,1-.136-.136q-.136,0-.136-.068t-.136-.068l-.272-.272-.272-.272a8.831,8.831,0,0,1-1.7-4.015,14.179,14.179,0,0,1,.2-5.648,32.618,32.618,0,0,1-6.532,6.4,12.478,12.478,0,0,1-5.171,2.314h-.544a4.9,4.9,0,0,1-2.45-.544q-2.177-1.225-2.314-4.423a15.151,15.151,0,0,1,1.905-7.281q3.13-6.532,6.056-8.914a12.482,12.482,0,0,1,4.967-2.79,3.016,3.016,0,0,1,.953-.136h1.089a6.616,6.616,0,0,1,3.266,1.361,1.235,1.235,0,0,1,.136,1.769q-.68.953-1.769.136a3.129,3.129,0,0,0-2.314-.817,5.362,5.362,0,0,0-2.314,1.633,34.408,34.408,0,0,0-3.13,3.674A35.393,35.393,0,0,0,228.74-24.3a16.762,16.762,0,0,0-1.769,5.035q-.544,2.314-.068,3.062a2.728,2.728,0,0,0,1.021,1.021q2.041-.272,5.648-3.2t8.37-10.139l.272-.272a.392.392,0,0,1,.272-.136l.136-.136h.408q.272,0,.272.136h.136l1.225.544a1.142,1.142,0,0,1,.68,1.5,37.937,37.937,0,0,0-1.293,3.674,34.2,34.2,0,0,0-.953,4.015,21.047,21.047,0,0,0-.34,3.538,3.626,3.626,0,0,0,.544,2.245.12.12,0,0,0,.136.136.12.12,0,0,0,.136.136l.408.408q1.769.953,5.58-1.157T259.089-23.479Zm34.7-.136q.817-.953,1.769,0a1.161,1.161,0,0,1,0,1.769q-.136.136-1.633,1.429a23.79,23.79,0,0,1-3.606,2.518,17.3,17.3,0,0,1-4.627,1.837,6.241,6.241,0,0,1-4.7-.612,4.648,4.648,0,0,1-2.245-2.109,6.434,6.434,0,0,1-.612-2.79,13.472,13.472,0,0,1,.34-2.994q.34-1.5.749-2.994.817-3.674.068-5.171a2.154,2.154,0,0,0-2.586-1.157,11.556,11.556,0,0,0-4.423,2.245,32.867,32.867,0,0,0-5.239,4.967,59.76,59.76,0,0,0-5.171,7.009,42.884,42.884,0,0,0-4.151,8.438l-.953,2.586a1.067,1.067,0,0,1-1.089.817h-.544a.788.788,0,0,1-.544-.136,1.142,1.142,0,0,1-.68-1.5L264.124-37.5a1.067,1.067,0,0,1,1.089-.817h.953a1.493,1.493,0,0,1,.953.544.975.975,0,0,1,.136,1.089l-4.763,12.112a31.993,31.993,0,0,1,7.485-8.574q4.083-3.13,7.281-3.47a4.671,4.671,0,0,1,4.831,2.314q1.633,2.654.136,8.914a33.874,33.874,0,0,0-.885,4.219,2.163,2.163,0,0,0,.885,2.314,3.944,3.944,0,0,0,3.062.408,13.7,13.7,0,0,0,3.334-1.293,20.111,20.111,0,0,0,2.994-1.973A26.981,26.981,0,0,0,293.791-23.615Zm23.271.136a.83.83,0,0,1,.749-.544,1.564,1.564,0,0,1,.885.272q.817.544.272,1.769-1.633,3.4-3.947,7.825a53.408,53.408,0,0,1-5.239,8.165A26.962,26.962,0,0,1,303.454,0a8.665,8.665,0,0,1-6.941,1.429q-7.757-2.586-3.266-23a7.5,7.5,0,0,1,.272-1.5q1.089-4.9,2.858-10.547t3.947-11.364q-4.763,1.361-7.757,2.314T287.736-41.1q-1.837.612-2.586.953a4,4,0,0,1-.885.34.554.554,0,0,1-.408.136,1.059,1.059,0,0,1-1.089-.68,1.133,1.133,0,0,1,.68-1.633l.953-.408q.953-.408,2.994-1.157t5.444-1.837q3.4-1.089,8.574-2.45,3.674-9.8,7.893-18.644a154.906,154.906,0,0,1,8.029-14.97,57.384,57.384,0,0,1,3.538-5.444A7.524,7.524,0,0,1,324-89.619a2.742,2.742,0,0,1,2.314-.068,2.247,2.247,0,0,1,1.5,1.429q.68,1.5.068,4.9a49.438,49.438,0,0,1-2.45,8.3q-1.837,4.9-4.763,11.023t-6.736,13.065q6.668-1.361,13.677-2.314a121.126,121.126,0,0,1,13.949-1.089,1.083,1.083,0,0,1,1.225,1.225,1.083,1.083,0,0,1-1.225,1.225A118.179,118.179,0,0,0,326.725-50.7q-7.485,1.089-14.426,2.586-3.13,5.716-6.873,11.7T297.33-24.3a72.347,72.347,0,0,0-1.7,7.757,51.319,51.319,0,0,0-.68,7.009,22.258,22.258,0,0,0,.476,5.512,4.485,4.485,0,0,0,2.041,3.13q2.041.544,4.7-1.157a23.142,23.142,0,0,0,5.307-4.967,60.79,60.79,0,0,0,5.171-7.553A70.836,70.836,0,0,0,317.063-23.479Zm1.769-55.661q-2.994,5.716-6.4,13.813T305.9-49.064q1.089-.272,2.314-.544l2.45-.544q4.355-7.757,7.485-14.289t4.967-11.364a46.939,46.939,0,0,0,2.382-7.825q.544-2.994,0-3.674-.953,0-2.654,2.109A51.5,51.5,0,0,0,318.832-79.14ZM304.815-46.206q-1.5,3.674-2.654,7.145T299.916-32.6q2.586-3.947,4.831-7.553t4.287-7.145q-1.089.272-2.109.544T304.815-46.206ZM328.9-35.863a28.836,28.836,0,0,0-4.423,4.627,23.919,23.919,0,0,0-3.47,6.4,50.844,50.844,0,0,0,8.37-5.784,7.633,7.633,0,0,0,2.654-4.287q.272-1.5-.544-1.905Q330.808-37.5,328.9-35.863Zm13.473,12.384q.817-1.089,1.633,0a1.162,1.162,0,0,1,0,1.769,38.431,38.431,0,0,1-7.757,5.376A38.854,38.854,0,0,1,325.5-12.32a13.855,13.855,0,0,1-3.606.408,6.1,6.1,0,0,1-3.2-.68q-3.4-1.633-2.45-7.485a25,25,0,0,1,2.45-7.349,29.591,29.591,0,0,1,4.491-6.668,19.525,19.525,0,0,1,5.307-4.287q2.722-1.429,4.763-.2a3.966,3.966,0,0,1,1.225,3.947,10.773,10.773,0,0,1-4.219,6.736,72.744,72.744,0,0,1-10.071,6.328q-.136,1.089-.34,2.518a5.352,5.352,0,0,0,.34,2.79,5.32,5.32,0,0,0,.749,1.293,2.436,2.436,0,0,0,1.973.612,16.892,16.892,0,0,0,4.287-.68,32.779,32.779,0,0,0,5.171-1.905,44.067,44.067,0,0,0,5.308-2.926A32.8,32.8,0,0,0,342.376-23.479ZM396-79.412q1.905,2.858.953,7.213a38.344,38.344,0,0,1-4.355,10.683,137.988,137.988,0,0,1-7.961,12.452q-4.559,6.4-9.73,12.452t-9.662,10.683a62.294,62.294,0,0,0-1.633,11.84q-.136,5.171,1.769,7.213a6.507,6.507,0,0,0,3.674-1.7,51.344,51.344,0,0,0,4.627-4.151,61.772,61.772,0,0,0,4.763-5.376q2.314-2.926,4.083-5.376.817-1.089,1.769-.272a1.035,1.035,0,0,1,.272,1.633q-.68.953-2.45,3.334t-4.083,5.035a64.172,64.172,0,0,1-4.9,5.035A22.291,22.291,0,0,1,368.1-5.107a6,6,0,0,1-4.355.68q-1.905-.544-2.858-3.947-1.361-5.171-.136-13.065a41.241,41.241,0,0,1-5.58,4.491q-5.58,3.4-9.8,1.769a6.268,6.268,0,0,1-2.041-1.5,6.412,6.412,0,0,1-1.361-5.784,18.789,18.789,0,0,1,3.811-7.553,29.553,29.553,0,0,1,3.13-3.47,20.939,20.939,0,0,1,4.015-3.062,10.369,10.369,0,0,1,4.219-1.429,4.487,4.487,0,0,1,3.742,1.429,1.162,1.162,0,0,1,0,1.769q-1.089.817-1.769-.136a1.85,1.85,0,0,0-2.041-.408,8.292,8.292,0,0,0-2.45,1.361,15.635,15.635,0,0,0-2.177,2.041q-.953,1.089-1.361,1.5A29.172,29.172,0,0,0,346.662-23q-1.565,3.879-.068,5.648,2.994.953,7.349-1.633a27.852,27.852,0,0,0,3.062-2.382q1.973-1.7,4.423-4.151a106.789,106.789,0,0,1,5.1-17.215,157.664,157.664,0,0,1,7.621-16.943,101.349,101.349,0,0,1,8.438-13.609q4.287-5.716,7.553-7.349Q393.682-82.27,396-79.412Zm-1.5,6.8a9.459,9.459,0,0,0,.2-1.565,14.314,14.314,0,0,0,0-1.973,3.634,3.634,0,0,0-.476-1.633A1.337,1.337,0,0,0,393-78.46q-1.769.544-4.627,4.015a93.784,93.784,0,0,0-6.124,8.506q-3.266,5.035-6.4,11.091T370.41-43.076q-1.089,3.13-2.109,6.192t-1.973,6.192q4.355-4.627,8.982-10.275t8.642-11.3a104.619,104.619,0,0,0,6.873-10.955A34.828,34.828,0,0,0,394.5-72.608ZM472.049-33.74a1.164,1.164,0,0,1-.272,1.769q-7.485,4.627-13.745,8.71t-11.7,7.757q-1.905,4.627-4.015,8.982t-4.151,7.893q-17.011,28.171-31.709,28.171a9.854,9.854,0,0,1-3.811-.68A3.439,3.439,0,0,1,400.6,26.14a9.508,9.508,0,0,1,.68-4.287q.953-2.926,5.239-7.893A128.147,128.147,0,0,1,419.314,1.644a276.977,276.977,0,0,1,23.339-17.556q1.905-4.355,3.742-9.254t3.742-10.343a72.251,72.251,0,0,1-8.71,8.029,43.334,43.334,0,0,1-6.736,4.287,15.277,15.277,0,0,1-5.035,1.633,11.121,11.121,0,0,1-3.334-.068,5.816,5.816,0,0,1-4.9-4.355,9.9,9.9,0,0,1,.136-6.26,15.11,15.11,0,0,1,3.811-6.124,1.176,1.176,0,0,1,.817-.408h1.225q.68-.136,1.225.68a1.233,1.233,0,0,1-.272,1.361,10.223,10.223,0,0,1-.953,1.089q-.408.544-.953,1.293a11.088,11.088,0,0,0-.953,1.565q-.272.68-.749,1.633a7.672,7.672,0,0,0-.68,2.109,9.487,9.487,0,0,0-.136,2.245,2.879,2.879,0,0,0,.885,1.905l.817.544a3.036,3.036,0,0,0,1.089.408,10.844,10.844,0,0,0,2.654-.068,15.436,15.436,0,0,0,4.967-1.837,47.206,47.206,0,0,0,7.553-5.239A86.079,86.079,0,0,0,452.18-41.5a3.3,3.3,0,0,1,.476-.408,5.309,5.309,0,0,1,1.837,0,1.568,1.568,0,0,1,1.089.544,1.536,1.536,0,0,1,.136,1.089q-.136.272-.749,2.041T453.337-33.6q-1.021,2.858-2.382,6.464t-2.994,7.553q5.035-3.4,10.547-6.941t11.908-7.485Q471.5-34.829,472.049-33.74Zm-64.915,60.7a20.884,20.884,0,0,0,6.668-2.45,34.658,34.658,0,0,0,8.165-6.532,81.12,81.12,0,0,0,9.118-11.7,136.337,136.337,0,0,0,9.662-17.828q-9.662,6.8-16.195,12.112T413.8,9.877a63.346,63.346,0,0,0-6.464,6.941,41.534,41.534,0,0,0-3.266,4.763,9.034,9.034,0,0,0-1.157,2.858,2.853,2.853,0,0,0,0,1.293,1.71,1.71,0,0,0,1.565,1.293A7.485,7.485,0,0,0,407.134,26.956ZM510.7-34.148q1.225-.544,1.5.817a1.146,1.146,0,0,1-.817,1.5A44.789,44.789,0,0,1,500.9-29.725a24.433,24.433,0,0,1-6.941-.476.392.392,0,0,1-.136.272,46.845,46.845,0,0,1-3.4,4.831,27.252,27.252,0,0,1-4.083,4.151,21.962,21.962,0,0,1-4.491,2.858A10.517,10.517,0,0,1,477.357-17a7.8,7.8,0,0,1-6.4-3.062,9.92,9.92,0,0,1-2.314-6.736,20.261,20.261,0,0,1,1.905-7.485,35.653,35.653,0,0,1,4.7-7.621,42.812,42.812,0,0,1,6.532-6.6,28.133,28.133,0,0,1,7.417-4.423,2.49,2.49,0,0,1,1.157,0,2.321,2.321,0,0,1,.953.408.576.576,0,0,1,.136.748,2.635,2.635,0,0,1-1.157,1.021,40.7,40.7,0,0,0-7.077,4.9,38.96,38.96,0,0,0-5.376,5.648,27.974,27.974,0,0,0-3.538,5.92,23.142,23.142,0,0,0-1.7,5.716q-.817,5.716,1.361,7.553a5.907,5.907,0,0,0,5.512,1.021,17.225,17.225,0,0,0,6.873-3.811,18.911,18.911,0,0,0,5.307-7.213q-.272-.272-.408-.272l-.544-.272a7.788,7.788,0,0,1-1.837-1.565,12.347,12.347,0,0,1-1.157-1.565,8,8,0,0,1-.749-4.831,13.174,13.174,0,0,1,1.633-5.035,7.624,7.624,0,0,1,3.266-3.2q1.973-.953,4.015.817a4.946,4.946,0,0,1,1.769,2.722,10.405,10.405,0,0,1,.2,3.606,17.647,17.647,0,0,1-.953,4.083q-.748,2.109-1.7,4.151Q501.036-31.29,510.7-34.148Zm-17.828.953a21.723,21.723,0,0,0,2.586-7.349q.408-3.266-1.089-4.491a1.254,1.254,0,0,0-1.905-.136,3.859,3.859,0,0,0-1.225,1.633,7.7,7.7,0,0,0-.817,2.245,13.186,13.186,0,0,0-.272,2.722,7.449,7.449,0,0,0,.544,2.79,5.981,5.981,0,0,0,1.633,2.314Zm56.477-.544q.817-1.089,1.769-.272,1.089.817.272,1.769a40.9,40.9,0,0,1-8.71,8.778q-4.355,3.062-7.757,3.062a6.2,6.2,0,0,1-3.4-.953,6.308,6.308,0,0,1-2.382-3.674,15.393,15.393,0,0,1-.068-6.668,36.705,36.705,0,0,1-7.825,8.438q-3.879,2.858-7.145,2.722a4.729,4.729,0,0,1-4.355-2.722q-1.5-3.13.068-8.3A36.475,36.475,0,0,1,515.6-42.45a1.411,1.411,0,0,1,1.5-.748,1.736,1.736,0,0,1,1.5.748q.408.544-.136,1.361a26.267,26.267,0,0,0-2.518,3.538,35.586,35.586,0,0,0-2.518,4.9,18.165,18.165,0,0,0-1.361,5.1,6.13,6.13,0,0,0,.953,4.287,1.852,1.852,0,0,0,1.225.272,6.828,6.828,0,0,0,3.947-1.157,22.717,22.717,0,0,0,4.559-3.742,51.126,51.126,0,0,0,4.9-5.988,88.244,88.244,0,0,0,4.967-7.893q.681-1.361,1.429-2.79t1.565-2.926a.12.12,0,0,0,.136-.136l.136-.136.136-.136q.136,0,.136-.068t.136-.068h.272v-.136h1.089a1.215,1.215,0,0,1,1.225.544,1.018,1.018,0,0,1,0,1.225q-1.633,2.858-3.334,6.4a47.647,47.647,0,0,0-2.722,6.941A23.484,23.484,0,0,0,531.725-27q-.068,2.654,1.429,3.742,2.177,1.225,6.6-1.157T549.348-33.74Z" transform="translate(0 117.92)"/></g></svg>