<svg xmlns="http://www.w3.org/2000/svg" width="1919.999" height="21" viewBox="0 0 1919.999 21"><defs><style>.a{fill:none;stroke:#fff;stroke-miterlimit:10;stroke-width:5px;}</style></defs><g transform="translate(0 2.5)"><g transform="translate(0 -1)"><path class="a" d="M0,1C23.41,1,23.41,17,46.83,17S70.24,1,93.65,1s23.42,16,46.83,16S163.89,1,187.3,1s23.42,16,46.83,16S257.55,1,281,1s23.41,16,46.83,16S351.2,1,374.61,1,398,17,421.44,17,444.85,1,468.27,1s23.41,16,46.83,16S538.51,1,561.93,1s23.41,16,46.83,16S632.17,1,655.59,1,679,17,702.41,17,725.83,1,749.24,1s23.42,16,46.83,16S819.48,1,842.9,1s23.41,16,46.83,16S913.14,1,936.56,1,960,17,983.39,17s23.41-16,46.83-16,23.41,16,46.82,16,23.41-16,46.82-16,23.42,16,46.83,16,23.42-16,46.83-16,23.42,16,46.83,16,23.41-16,46.83-16,23.41,16,46.83,16,23.41-16,46.82-16,23.42,16,46.83,16,23.42-16,46.84-16,23.41,16,46.83,16,23.42-16,46.83-16,23.42,16,46.83,16,23.42-16,46.84-16,23.41,16,46.83,16,23.41-16,46.83-16,23.42,16,46.83,16,23.42-16,46.84-16,23.42,16,46.84,16"/></g></g></svg>