<svg xmlns="http://www.w3.org/2000/svg" width="336.123" height="145.131" viewBox="0 0 336.123 145.131"><defs><style>.a{mix-blend-mode:exclusion;isolation:isolate;}.b{fill:#fff;}</style></defs><g class="a"><path class="b" d="M434.267,134.039V1.126A1.126,1.126,0,0,0,433.169,0h-16.5a1.126,1.126,0,0,0-1.1,1.126V143.565a1.126,1.126,0,0,0,1.65.951l16.5-9.532A1.092,1.092,0,0,0,434.267,134.039Z" transform="translate(-181.603)"/><path class="b" d="M510.225,109.368V1.148A1.126,1.126,0,0,0,509.1.05H492.626A1.126,1.126,0,0,0,491.5,1.176V118.894a1.126,1.126,0,0,0,1.65.951l16.5-9.526a1.092,1.092,0,0,0,.574-.951Z" transform="translate(-214.785 -0.022)"/><path class="b" d="M.248,151.68a.5.5,0,0,0-.248.428v53.716H18.7a.563.563,0,0,0,.563-.563v-51.92a27.142,27.142,0,0,1,3.682-13.692.5.5,0,0,0-.676-.681Z" transform="translate(0 -60.699)"/><rect class="b" width="18.697" height="107.73" rx="1.95" transform="translate(191.195 37.4)"/><path class="b" d="M156.209,81.78a46.549,46.549,0,0,0-36.865,18.264,46.909,46.909,0,0,0-14.773-12.622.479.479,0,0,0-.484,0l-21.957,12.69a.5.5,0,0,0,.253.923h0a27.322,27.322,0,0,1,27.334,27.328V180.3a.563.563,0,0,0,.563.563h18.14a.563.563,0,0,0,.563-.563V128.672a27.337,27.337,0,1,1,54.673-.3V180.3a.563.563,0,0,0,.563.563h18.14a.563.563,0,0,0,.563-.563V128.762C202.9,103.078,181.893,81.729,156.209,81.78Z" transform="translate(-35.783 -35.738)"/><rect class="b" width="18.703" height="18.703" rx="1.95" transform="translate(191.195)"/><rect class="b" width="18.703" height="18.703" rx="1.95" transform="translate(317.42 91.364)"/></g></svg>