<svg xmlns="http://www.w3.org/2000/svg" width="286" height="108.39" viewBox="0 0 286 108.39"><defs><style>.a,.c{fill:#222;}.a{font-size:16px;}.a,.d{font-family:Helvetica;}.b,.c{font-family:HiraginoSans-W3, Hiragino Sans;}.c{font-size:13px;}.e{fill:#8b8b8b;}</style></defs><g transform="translate(-140 -827)"><g transform="translate(0 1)"><text class="a" transform="translate(140 863)"><tspan x="0" y="0">mill</tspan><tspan class="b" y="0">とは</tspan></text><text class="c" transform="translate(140 891)"><tspan x="0" y="0">製粉所、水車小屋、粉砕器、製粉機、製造工場、</tspan><tspan class="d" y="0"></tspan><tspan x="0" y="20">製作所、</tspan><tspan class="d" y="20">(</tspan><tspan y="20">人・ものを</tspan><tspan class="d" y="20">)</tspan><tspan y="20">機械的に作り上げる所</tspan></text></g><g transform="translate(0 -0.41)"><path class="e" d="M9.72-14.79v-3.57H7.62a2.149,2.149,0,0,1,1.77-2.31v-1.92c-1.02.24-3.24.81-3.24,4.23v3.57Zm-4.77,0v-3.57H2.88a2.12,2.12,0,0,1,1.74-2.31v-1.92c-1.02.24-3.24.81-3.24,4.23v3.57Z" transform="translate(138.62 850)"/><path class="e" d="M8.34,7.8V4.23H6.24A2.149,2.149,0,0,1,8.01,1.92V0C6.99.24,4.77.81,4.77,4.23V7.8Zm-4.77,0V4.23H1.5A2.12,2.12,0,0,1,3.24,1.92V0C2.22.24,0,.81,0,4.23V7.8Z" transform="translate(426 935.8) rotate(180)"/></g></g></svg>